<svg width="113" height="28" viewBox="0 0 113 28" fill="none" xmlns="http://www.w3.org/2000/svg">
<circle cx="99.55" cy="13" r="13" fill="#D6001C"/>
<path fill-rule="evenodd" clip-rule="evenodd" d="M15.2217 1.50002H14.7551V17.53C14.7551 18.7667 14.4284 19.77 13.7751 20.54C13.1218 21.31 12.1301 21.695 10.8001 21.695C9.49342 21.695 8.51342 21.31 7.86009 20.54C7.20675 19.77 6.88009 18.7667 6.88009 17.53V1.50002H0.965088V17.95C0.965088 19.49 1.21009 20.8317 1.70009 21.975C2.21342 23.1184 2.91342 24.0634 3.80009 24.81C4.71009 25.5334 5.76009 26.0817 6.95009 26.455C8.14009 26.8284 9.42342 27.015 10.8001 27.015C12.1768 27.015 13.4601 26.8284 14.6501 26.455C15.8634 26.0817 16.9134 25.5334 17.8001 24.81C18.7101 24.0634 19.4101 23.1184 19.9001 21.975C20.4134 20.8317 20.6701 19.49 20.6701 17.95V6.94845L15.2217 1.50002ZM30.5461 13.75C30.5461 15.1967 30.8261 16.48 31.3861 17.6C31.9694 18.6967 32.7744 19.56 33.8011 20.19C34.8511 20.82 36.0761 21.135 37.4761 21.135C38.8528 21.135 40.0544 20.82 41.0811 20.19C41.139 20.1553 41.1962 20.1198 41.2526 20.0837L45.4901 24.3211C44.6649 24.9203 43.7553 25.4216 42.7611 25.825C41.1511 26.455 39.3894 26.77 37.4761 26.77C35.5394 26.77 33.7661 26.455 32.1561 25.825C30.5461 25.1717 29.1461 24.2617 27.9561 23.095C26.7894 21.9284 25.8794 20.5517 25.2261 18.965C24.5961 17.3784 24.2811 15.64 24.2811 13.75C24.2811 11.86 24.6078 10.1334 25.2611 8.57002C25.7059 7.54238 26.2616 6.60547 26.9282 5.7593L31.2931 10.1242C30.7951 11.1772 30.5461 12.3858 30.5461 13.75ZM48.3032 21.4774L43.7892 16.9634C44.1771 16.0009 44.3711 14.9298 44.3711 13.75C44.3711 12.3034 44.0911 11.0317 43.5311 9.93502C42.9711 8.81502 42.1778 7.94002 41.1511 7.31002C40.1244 6.68002 38.8994 6.36502 37.4761 6.36502C36.1696 6.36502 35.0155 6.63936 34.0138 7.18802L29.8924 3.06662C30.6237 2.59835 31.4133 2.20448 32.2611 1.88502C33.8711 1.25502 35.6094 0.940024 37.4761 0.940024C39.3661 0.940024 41.1044 1.25502 42.6911 1.88502C44.3011 2.49169 45.7011 3.36669 46.8911 4.51002C48.0811 5.65336 49.0028 7.00669 49.6561 8.57002C50.3094 10.1334 50.6361 11.86 50.6361 13.75C50.6361 15.64 50.3094 17.3784 49.6561 18.965C49.2964 19.8709 48.8454 20.7084 48.3032 21.4774ZM60.7262 13.505L59.2562 26H53.0262L56.9812 0.275024L67.4112 15.22L77.8762 0.275024L81.8312 26H75.6012L74.1312 13.505L67.4112 23.725L60.7262 13.505Z" fill="#222222"/>
</svg>
